<svg width="18" height="18" viewBox="0 0 18 18" fill="none" xmlns="http://www.w3.org/2000/svg">
<path d="M7.86043 3.82694H5C2.79086 3.82694 1 5.6178 1 7.82694V12.7311C1 14.9402 2.79086 16.7311 5 16.7311H10.0675C12.2766 16.7311 14.0675 14.9402 14.0675 12.7311V10.034M15.2109 5.22532L10.6762 9.53882C10.2211 9.97174 9.67038 10.2914 9.06873 10.4719L6.71703 11.1774L7.41484 8.85135C7.60025 8.23332 7.93243 7.66931 8.38302 7.20745L12.6371 2.84701M15.2109 5.22532L16.3142 4.17581C16.5578 3.94415 16.7817 3.68484 16.8865 3.36549C17.0404 2.89674 17.1317 2.15437 16.5176 1.54013C15.9785 1.00083 15.3404 0.95604 14.8755 1.02488C14.434 1.09025 14.0717 1.37656 13.76 1.69604L12.6371 2.84701M15.2109 5.22532L12.6371 2.84701" stroke="#B8B8B8" stroke-linecap="round" stroke-linejoin="round"/>
</svg>
