<svg width="12" height="12" viewBox="0 0 12 12" fill="none" xmlns="http://www.w3.org/2000/svg">
<path d="M4.88637 6.99999C4.8502 6.99999 4.81552 6.98572 4.78995 6.96034C4.76437 6.93494 4.75 6.90049 4.75 6.86457V3.88542C4.75 3.86189 4.75617 3.83877 4.76792 3.81832C4.77965 3.79787 4.79655 3.78082 4.81695 3.76884C4.83735 3.75687 4.86055 3.75037 4.88422 3.75002C4.90792 3.74964 4.93133 3.75542 4.95208 3.76674L7.67935 5.25634C7.70075 5.26802 7.71858 5.28519 7.73103 5.30607C7.74345 5.32694 7.75 5.35074 7.75 5.37499C7.75 5.39924 7.74345 5.42304 7.73103 5.44392C7.71858 5.46479 7.70075 5.48197 7.67935 5.49364L4.95208 6.98322C4.93195 6.99422 4.90935 6.99999 4.88637 6.99999Z" fill="currentColor"/>
<path fill-rule="evenodd" clip-rule="evenodd" d="M10.5 1.25H1.5C1.30109 1.25 1.11032 1.32902 0.96967 1.46967C0.829018 1.61032 0.75 1.80109 0.75 2V8.5C0.75 8.69892 0.829018 8.88967 0.96967 9.03032C1.11032 9.17097 1.30109 9.25 1.5 9.25H10.5C10.6989 9.25 10.8897 9.17097 11.0303 9.03032C11.171 8.88967 11.25 8.69892 11.25 8.5V2C11.25 1.80109 11.171 1.61032 11.0303 1.46967C10.8897 1.32902 10.6989 1.25 10.5 1.25ZM10.5 8.5H1.5V2H10.5V8.5Z" fill="currentColor"/>
<path d="M9 10V10.75H3V10H9Z" fill="currentColor"/>
</svg>
