<svg width="12" height="14" viewBox="0 0 12 14" fill="none" xmlns="http://www.w3.org/2000/svg">
<path d="M9.29824 0H2.70259C1.98582 0 1.2984 0.332147 0.79157 0.923371C0.284736 1.5146 0 2.31647 0 3.15259V10.8474C0 11.6835 0.284736 12.4854 0.79157 13.0766C1.2984 13.6679 1.98582 14 2.70259 14H9.29741C10.0142 14 10.7016 13.6679 11.2084 13.0766C11.7153 12.4854 12 11.6835 12 10.8474V3.15452C12.0002 2.74044 11.9305 2.33036 11.7948 1.94771C11.6592 1.56506 11.4602 1.21733 11.2093 0.924397C10.9584 0.63146 10.6605 0.399049 10.3326 0.240439C10.0047 0.0818288 9.65322 0.000126942 9.29824 0ZM2.65285 11.0515C2.45497 11.0515 2.26519 10.9598 2.12527 10.7965C1.98534 10.6333 1.90674 10.4119 1.90674 10.1811C1.90674 9.95028 1.98534 9.72891 2.12527 9.56569C2.26519 9.40247 2.45497 9.31077 2.65285 9.31077C2.80049 9.31073 2.94483 9.36179 3.06758 9.45748C3.19034 9.55317 3.28599 9.6892 3.34244 9.84834C3.3989 10.0075 3.4136 10.1826 3.3847 10.3515C3.35581 10.5204 3.2846 10.6755 3.1801 10.7971C3.11072 10.8779 3.02837 10.942 2.93776 10.9856C2.84715 11.0292 2.75088 11.0516 2.65285 11.0515ZM9.34881 11.0515H4.94674C4.84875 11.0515 4.75173 11.0289 4.66121 10.9852C4.57069 10.9415 4.48844 10.8774 4.41915 10.7965C4.34987 10.7157 4.29491 10.6198 4.25742 10.5142C4.21992 10.4086 4.20062 10.2954 4.20062 10.1811C4.20062 10.0668 4.21992 9.95364 4.25742 9.84805C4.29491 9.74245 4.34987 9.64651 4.41915 9.56569C4.48844 9.48487 4.57069 9.42076 4.66121 9.37702C4.75173 9.33328 4.84875 9.31077 4.94674 9.31077H9.34052C9.4385 9.31077 9.53552 9.33328 9.62604 9.37702C9.71657 9.42076 9.79882 9.48487 9.8681 9.56569C9.93738 9.64651 9.99234 9.74245 10.0298 9.84805C10.0673 9.95364 10.0866 10.0668 10.0866 10.1811C10.0866 10.2954 10.0673 10.4086 10.0298 10.5142C9.99234 10.6198 9.93738 10.7157 9.8681 10.7965C9.79882 10.8774 9.71657 10.9415 9.62604 10.9852C9.53552 11.0289 9.4385 11.0515 9.34052 11.0515H9.34881ZM9.34881 7.80604H2.65285C2.45497 7.80604 2.26519 7.71434 2.12527 7.55112C1.98534 7.3879 1.90674 7.16652 1.90674 6.93569C1.90674 6.70486 1.98534 6.48348 2.12527 6.32026C2.26519 6.15704 2.45497 6.06535 2.65285 6.06535H9.34798C9.54586 6.06535 9.73564 6.15704 9.87556 6.32026C10.0155 6.48348 10.0941 6.70486 10.0941 6.93569C10.0941 7.16652 10.0155 7.3879 9.87556 7.55112C9.73564 7.71434 9.54586 7.80604 9.34798 7.80604H9.34881ZM9.34881 4.6902H2.65285C2.45497 4.6902 2.26519 4.5985 2.12527 4.43528C1.98534 4.27206 1.90674 4.05068 1.90674 3.81985C1.90674 3.58902 1.98534 3.36765 2.12527 3.20442C2.26519 3.0412 2.45497 2.94951 2.65285 2.94951H9.34798C9.54586 2.94951 9.73564 3.0412 9.87556 3.20442C10.0155 3.36765 10.0941 3.58902 10.0941 3.81985C10.0941 4.05068 10.0155 4.27206 9.87556 4.43528C9.73564 4.5985 9.54586 4.6902 9.34798 4.6902H9.34881Z" fill="currentColor"/>
</svg>
