<svg width="43" height="43" viewBox="0 0 43 43" fill="none" xmlns="http://www.w3.org/2000/svg">
<g clip-path="url(#clip0_503_444)">
<path d="M21.5 43C33.3741 43 43 33.3741 43 21.5C43 9.62588 33.3741 0 21.5 0C9.62588 0 0 9.62588 0 21.5C0 33.3741 9.62588 43 21.5 43Z" fill="#717171"/>
<path d="M21.5002 23.7404C25.4582 23.7404 28.6668 20.3313 28.6668 16.1259C28.6668 11.9205 25.4582 8.51132 21.5002 8.51132C17.5421 8.51132 14.3335 11.9205 14.3335 16.1259C14.3335 20.3313 17.5421 23.7404 21.5002 23.7404Z" fill="white"/>
<path fill-rule="evenodd" clip-rule="evenodd" d="M6.90186 37.2856C7.68257 35.2915 8.87105 33.4591 10.4146 31.9155C13.3547 28.9755 17.3422 27.3238 21.5 27.3238C25.6579 27.3238 29.6454 28.9755 32.5854 31.9155C34.1288 33.4589 35.3172 35.291 36.0979 37.285C32.264 40.8326 27.135 43.0007 21.4995 43.0007C15.8645 43.0007 10.7357 40.8329 6.90186 37.2856Z" fill="white"/>
</g>
<defs>
<clipPath id="clip0_503_444">
<rect width="43" height="43" fill="white"/>
</clipPath>
</defs>
</svg>
