<svg class=" w-[20px] text-light" width="20" height="20" viewBox="0 0 20 20" fill="none" xmlns="http://www.w3.org/2000/svg">
<g clip-path="url(#clip0_503_62)">
<path d="M9.41406 2.31445V4.62928L11.4521 5.80523L11.795 5.24273L10.1283 4.28205V2.31445H9.41406Z" fill="currentColor"/>
<path d="M9.88671 0C7.51767 0 5.60338 1.86574 5.60338 4.16666H4.1748L6.02957 5.9699L6.06289 6.03703L7.98434 4.16666H6.55577C6.55577 2.37733 8.04863 0.925933 9.88909 0.925933C11.7296 0.925933 13.2224 2.37733 13.2224 4.16666C13.2224 5.95601 11.7296 7.4074 9.88909 7.4074C8.96767 7.4074 8.13671 7.04166 7.53434 6.45601L6.86053 7.11111C7.63434 7.86574 8.70338 8.33334 9.88671 8.33334C12.2558 8.33334 14.1748 6.4676 14.1748 4.16666C14.1748 1.86574 12.2558 0 9.88671 0Z" fill="currentColor"/>
<path fill-rule="evenodd" clip-rule="evenodd" d="M14.7021 5.86919C14.0055 7.79198 12.1631 9.16583 9.99979 9.16583C8.2059 9.16583 6.63266 8.22113 5.75044 6.80209L0 12.555L1.84159 14.3953C2.8816 13.356 4.5678 13.356 5.60786 14.3953C6.64791 15.4346 6.64787 17.1196 5.60786 18.1589L7.44939 19.9991L19.9998 7.4433L18.1582 5.60303C17.2162 6.54436 15.7441 6.63308 14.7021 5.86919ZM11.1422 13.5198L10.2879 12.666L9.43699 13.5164L10.2913 14.37L11.1422 13.5198ZM9.43362 11.8123L8.57929 10.9586L7.7284 11.8089L8.58274 12.6626L9.43362 11.8123ZM7.72499 10.1049L6.87069 9.25118L6.0198 10.1015L6.8741 10.9552L7.72499 10.1049Z" fill="currentColor"/>
</g>
<defs>
<clipPath id="clip0_503_62">
<rect width="20" height="20" fill="currentColor"/>
</clipPath>
</defs>
</svg>
