<svg class=" w-[20px] text-light" width="20" height="19" viewBox="0 0 20 19" fill="none" xmlns="http://www.w3.org/2000/svg">
<g clip-path="url(#clip0_503_46)">
<path d="M3.09129 14.4714C3.01782 14.3399 2.85155 14.2961 2.72395 14.3718L2.05112 14.7742V13.9733C2.05112 13.8219 1.93125 13.6984 1.78432 13.6984C1.63738 13.6984 1.51751 13.8219 1.51751 13.9733V14.7742L0.844697 14.3718C0.717093 14.2961 0.550823 14.3399 0.477355 14.4714C0.403885 14.603 0.44642 14.7742 0.574023 14.85L1.25071 15.2565L0.574023 15.663C0.44642 15.7387 0.403885 15.91 0.477355 16.0415C0.550823 16.1731 0.717093 16.2168 0.844697 16.1412L1.51751 15.7387V16.5397C1.51751 16.6911 1.63738 16.8146 1.78432 16.8146C1.93125 16.8146 2.05112 16.6911 2.05112 16.5397V15.7387L2.72395 16.1412C2.85155 16.2168 3.01782 16.1731 3.09129 16.0415C3.16476 15.91 3.12222 15.7387 2.99462 15.663L2.31794 15.2565L2.99462 14.85C3.12222 14.7702 3.16862 14.603 3.09129 14.4714Z" fill="currentColor"/>
<path d="M5.56426 16.0417C5.63773 16.1731 5.804 16.217 5.93162 16.1412L6.60443 15.7387V16.5398C6.60443 16.6912 6.7243 16.8147 6.87123 16.8147C7.01817 16.8147 7.13804 16.6912 7.13804 16.5398V15.7387L7.81085 16.1412C7.93846 16.217 8.10473 16.1731 8.17819 16.0417C8.25166 15.9101 8.20913 15.7387 8.08152 15.6631L7.40484 15.2565L8.08152 14.85C8.20913 14.7744 8.25166 14.603 8.17819 14.4714C8.10473 14.3399 7.93846 14.2961 7.81085 14.3718L7.13804 14.7744V13.9733C7.13804 13.8219 7.01817 13.6984 6.87123 13.6984C6.7243 13.6984 6.60443 13.8219 6.60443 13.9733V14.7744L5.93162 14.3758C5.804 14.3001 5.63773 14.3439 5.56426 14.4754C5.4908 14.607 5.53333 14.7782 5.66093 14.854L6.33762 15.2605L5.66093 15.6631C5.53333 15.7387 5.4908 15.9101 5.56426 16.0417Z" fill="currentColor"/>
<path d="M5.08301 18.1268V18.6121C5.08301 18.7275 5.17581 18.8231 5.28795 18.8231H8.45484C8.56697 18.8231 8.65977 18.7275 8.65977 18.6121V18.1268C8.65977 18.0114 8.56697 17.9159 8.45484 17.9159H5.28795C5.17195 17.9159 5.08301 18.0114 5.08301 18.1268Z" fill="currentColor"/>
<path d="M12.8052 4.53945H12.7821V3.45551C12.7821 1.57058 11.2856 -0.0314126 9.46051 0.000467805C7.68565 0.0323482 6.24721 1.53073 6.24721 3.36784V3.47145C6.24721 3.62687 6.37095 3.75439 6.52175 3.75439H7.39951C7.55031 3.75439 7.67405 3.62687 7.67405 3.47145V3.43956C7.67405 2.42736 8.41261 1.53869 9.39477 1.47494C10.462 1.40719 11.3514 2.27992 11.3514 3.36386V4.53546H8.64462V4.53945H6.1428C5.67879 4.55539 5.30371 4.94193 5.30371 5.42413V10.3257C5.30371 10.8159 5.69039 11.2144 6.166 11.2144H12.8015C13.277 11.2144 13.6637 10.8159 13.6637 10.3257V5.42811C13.6676 4.93795 13.2809 4.53945 12.8052 4.53945ZM9.99799 8.09809C9.93225 8.14592 9.91292 8.19772 9.91292 8.27742C9.91678 8.63608 9.91678 8.99473 9.91292 9.35738C9.92065 9.5088 9.84718 9.65227 9.71571 9.72001C9.41024 9.87941 9.10476 9.65625 9.10476 9.35738C9.10476 9.35738 9.10476 9.35738 9.10476 9.35339C9.10476 8.99473 9.10476 8.63209 9.10476 8.27344C9.10476 8.20171 9.0893 8.14991 9.02743 8.10208C8.71035 7.86298 8.60595 7.45252 8.76449 7.08988C8.91916 6.73919 9.29423 6.53198 9.64611 6.60768C10.0405 6.68739 10.3151 7.01815 10.3189 7.42064C10.3305 7.70358 10.2184 7.93471 9.99799 8.09809Z" fill="currentColor"/>
<path d="M10.165 18.1268V18.6121C10.165 18.7275 10.2579 18.8231 10.37 18.8231H13.5369C13.649 18.8231 13.7418 18.7275 13.7418 18.6121V18.1268C13.7418 18.0114 13.649 17.9159 13.5369 17.9159H10.37C10.2579 17.9159 10.165 18.0114 10.165 18.1268Z" fill="currentColor"/>
<path d="M10.6424 16.0417C10.7159 16.1731 10.8821 16.217 11.0097 16.1412L11.6826 15.7387V16.5398C11.6826 16.6912 11.8024 16.8147 11.9494 16.8147C12.0963 16.8147 12.2162 16.6912 12.2162 16.5398V15.7387L12.889 16.1412C13.0165 16.217 13.1829 16.1731 13.2563 16.0417C13.3298 15.9101 13.2872 15.7387 13.1597 15.6631L12.483 15.2565L13.1597 14.85C13.2872 14.7744 13.3298 14.603 13.2563 14.4714C13.1829 14.3399 13.0165 14.2961 12.889 14.3718L12.2162 14.7744V13.9733C12.2162 13.8219 12.0963 13.6984 11.9494 13.6984C11.8024 13.6984 11.6826 13.8219 11.6826 13.9733V14.7744L11.0097 14.3718C10.8821 14.2961 10.7159 14.3399 10.6424 14.4714C10.5689 14.603 10.6115 14.7744 10.7391 14.85L11.4157 15.2565L10.7391 15.6631C10.6115 15.7387 10.5689 15.9101 10.6424 16.0417Z" fill="currentColor"/>
<path d="M18.6199 17.9159H15.453C15.3409 17.9159 15.248 18.0114 15.248 18.1268V18.6121C15.248 18.7275 15.3409 18.8231 15.453 18.8231H18.6199C18.732 18.8231 18.8249 18.7275 18.8249 18.6121V18.1268C18.8249 18.0114 18.732 17.9159 18.6199 17.9159Z" fill="currentColor"/>
<path d="M0.204939 18.8231H3.37182C3.48396 18.8231 3.57676 18.7275 3.57676 18.6121V18.1268C3.57676 18.0114 3.48396 17.9159 3.37182 17.9159H0.204939C0.0928026 17.9159 0 18.0114 0 18.1268V18.6121C0 18.7275 0.0928026 18.8231 0.204939 18.8231Z" fill="currentColor"/>
<path d="M15.7272 16.0417C15.8006 16.1731 15.9668 16.217 16.0945 16.1412L16.7673 15.7387V16.5398C16.7673 16.6912 16.8872 16.8147 17.0341 16.8147C17.181 16.8147 17.3009 16.6912 17.3009 16.5398V15.7387L17.9737 16.1412C18.1013 16.217 18.2675 16.1731 18.341 16.0417C18.4145 15.9101 18.372 15.7387 18.2443 15.6631L17.5676 15.2565L18.2443 14.85C18.372 14.7744 18.4145 14.603 18.341 14.4714C18.2675 14.3399 18.1013 14.2961 17.9737 14.3718L17.3009 14.7744V13.9733C17.3009 13.8219 17.181 13.6984 17.0341 13.6984C16.8872 13.6984 16.7673 13.8219 16.7673 13.9733V14.7744L16.0945 14.3718C15.9668 14.2961 15.8006 14.3399 15.7272 14.4714C15.6536 14.603 15.6962 14.7744 15.8237 14.85L16.5005 15.2565L15.8237 15.6631C15.6962 15.7387 15.6497 15.9101 15.7272 16.0417Z" fill="currentColor"/>
</g>
<defs>
<clipPath id="clip0_503_46">
<rect width="20" height="18.8235" fill="currentColor"/>
</clipPath>
</defs>
</svg>
