<svg class=" w-[20px] text-light" width="16" height="20" viewBox="0 0 16 20" fill="none" xmlns="http://www.w3.org/2000/svg">
<g clip-path="url(#clip0_503_66)">
<path fill-rule="evenodd" clip-rule="evenodd" d="M0 2C0 0.895431 0.895431 0 2 0H14C15.1046 0 16 0.895431 16 2V13C15.4477 13 15 13.4477 15 14C15 14.5523 15.4477 15 16 15V18C16 19.1046 15.1046 20 14 20H2C0.895431 20 0 19.1046 0 18V15C0.552285 15 1 14.5523 1 14C1 13.4477 0.552285 13 0 13V2ZM10.5192 5.63622C11.1807 6.0221 11.1807 6.9779 10.5192 7.36378L7.50387 9.12274C6.83721 9.51163 6 9.03075 6 8.25896V4.74104C6 3.96925 6.83721 3.48837 7.50387 3.87726L10.5192 5.63622ZM4 15C4.55228 15 5 14.5523 5 14C5 13.4477 4.55228 13 4 13C3.44772 13 3 13.4477 3 14C3 14.5523 3.44772 15 4 15ZM9 14C9 14.5523 8.55229 15 8 15C7.44772 15 7 14.5523 7 14C7 13.4477 7.44772 13 8 13C8.55229 13 9 13.4477 9 14ZM12 15C12.5523 15 13 14.5523 13 14C13 13.4477 12.5523 13 12 13C11.4477 13 11 13.4477 11 14C11 14.5523 11.4477 15 12 15Z" fill="currentColor"/>
</g>
<defs>
<clipPath id="clip0_503_66">
<rect width="16" height="20" fill="currentColor"/>
</clipPath>
</defs>
</svg>
