<svg class=" w-[20px] text-light" width="16" height="19" viewBox="0 0 16 19" fill="none" xmlns="http://www.w3.org/2000/svg">
<g clip-path="url(#clip0_503_73)">
<path d="M10.104 3.32454C10.104 5.16063 8.59594 6.64908 6.73561 6.64908C4.87528 6.64908 3.36719 5.16063 3.36719 3.32454C3.36719 1.48845 4.87528 0 6.73561 0C8.59594 0 10.104 1.48845 10.104 3.32454Z" fill="currentColor"/>
<path d="M15.6795 14.2963H15.2642C15.1719 14.2963 15.0796 14.2505 15.0335 14.1588L14.8489 13.7461C14.8028 13.6544 14.8489 13.5627 14.895 13.5168L15.1719 13.2417C15.2642 13.15 15.2642 13.0124 15.1719 12.9207L14.572 12.3246C14.4798 12.2328 14.3413 12.2328 14.249 12.3246L13.9722 12.5997C13.9722 12.6455 13.8799 12.6914 13.7876 12.6455L13.3723 12.4621C13.28 12.4621 13.2339 12.3704 13.2339 12.2787V11.866C13.2339 11.7284 13.1416 11.6367 13.0032 11.6367H12.1726C12.0342 11.6367 11.9419 11.7284 11.9419 11.866V12.2787C11.9419 12.3704 11.8958 12.4621 11.8035 12.508L11.3882 12.6455C11.2959 12.6914 11.2036 12.6455 11.1575 12.5997L10.8345 12.3246C10.7422 12.2328 10.6038 12.2328 10.5115 12.3246L9.95778 12.8748C9.86549 12.9665 9.86549 13.1041 9.95778 13.1958L10.2346 13.4709C10.2808 13.5168 10.3269 13.6544 10.2808 13.7002L10.0962 14.1588C10.0962 14.2505 10.0039 14.2963 9.91162 14.2963H9.49634C9.35791 14.2963 9.26562 14.3881 9.26562 14.5256V15.351C9.26562 15.4886 9.35791 15.5803 9.49634 15.5803H9.91162C10.0039 15.5803 10.0962 15.6262 10.1423 15.7179L10.3269 16.1306C10.3731 16.2223 10.3269 16.314 10.2808 16.3599L10.0039 16.635C9.91162 16.7267 9.91162 16.8643 10.0039 16.956L10.6038 17.5521C10.6961 17.6438 10.8345 17.6438 10.9268 17.5521L11.2036 17.277C11.2498 17.2311 11.3882 17.1853 11.4343 17.2311L11.8496 17.4145C11.9419 17.4604 11.988 17.5521 11.988 17.6438V18.0565C11.988 18.1941 12.0803 18.2858 12.2188 18.2858H13.0493C13.1878 18.2858 13.28 18.1941 13.28 18.0565V17.598C13.28 17.5062 13.3262 17.4145 13.4185 17.3687L13.8338 17.1853C13.926 17.1394 14.0183 17.1853 14.0645 17.2311L14.3413 17.5062C14.4336 17.598 14.572 17.598 14.6643 17.5062L15.2642 16.9101C15.3565 16.8184 15.3565 16.6808 15.2642 16.5891L14.9873 16.314C14.9412 16.2681 14.895 16.1306 14.9412 16.0847L15.1258 15.672C15.1719 15.5803 15.2642 15.5345 15.3565 15.5345H15.7718C15.9102 15.5345 16.0025 15.4427 16.0025 15.3052V14.5256C16.0025 14.4072 15.8621 14.2963 15.6795 14.2963ZM12.5879 16.314C11.8035 16.314 11.2036 15.672 11.2036 14.9383C11.2036 14.1588 11.8496 13.5627 12.5879 13.5627C13.3262 13.5627 13.9722 14.2046 13.9722 14.9383C13.9722 15.7179 13.3723 16.314 12.5879 16.314Z" fill="currentColor"/>
<path fill-rule="evenodd" clip-rule="evenodd" d="M9.06007 16.6244C8.65696 16.0301 8.42188 15.3154 8.42188 14.5465C8.42188 12.7038 9.77207 11.1724 11.5493 10.8633C10.3265 9.6315 8.62211 8.86719 6.73684 8.86719C3.01619 8.86719 0 11.8441 0 15.5163C0 15.8938 0.0318864 16.2641 0.0931463 16.6244H9.06007Z" fill="currentColor"/>
</g>
<defs>
<clipPath id="clip0_503_73">
<rect width="16" height="19" fill="currentColor"/>
</clipPath>
</defs>
</svg>
